<svg width="20" height="20" viewBox="0 0 20 20" xmlns="http://www.w3.org/2000/svg">
  <path
     d="m 8.0121295,15.772247 v 0 q -0.4223191,0.338184 -0.8033963,0.338184 v 0 0 q -0.3802523,0 -0.7184376,-0.338184 v 0 L 1.7961182,11.12096 v 0 Q 1.4999998,10.824842 1.4999998,10.359631 v 0 0 q 0,-0.4652106 0.2961184,-0.761329 v 0 0 q 0.7184376,-0.7192623 1.5218339,0 v 0 L 7.2508002,13.53115 16.639154,4.1848623 v 0 q 0.338187,-0.2952936 0.761331,-0.2952936 v 0 0 q 0.423143,0 0.761328,0.2952936 v 0 0 Q 18.5,4.4809806 18.5,4.9041246 v 0 0 q 0,0.4231442 -0.338187,0.7613295 v 0 z" />
</svg>
