<svg width="20" height="20" viewBox="0 0 20 20" xmlns="http://www.w3.org/2000/svg">
  <path
     d="M 5.5192309,16.997272 17.046568,10.000252 5.5036949,3.002744 Z m 0,1.002728 C 5.3512789,18 5.1838229,17.95817 5.032159,17.873675 4.713799,17.696943 4.516511,17.36128 4.516511,16.997272 L 4.500991,3.002744 c 0,-0.36424 0.1972879,-0.699656 0.515648,-0.8764 C 5.1683029,2.042112 5.3357589,2 5.5037189,2 c 0.183496,0 0.367744,0.0504 0.529168,0.151408 l 11.5426241,6.99752 c 0.294802,0.182744 0.474046,0.504872 0.474046,0.851312 0,0.346446 -0.179228,0.668568 -0.474046,0.851566 L 6.0484309,17.849069 C 5.8869909,17.949348 5.7027429,18 5.5192549,18 Z" />
</svg>
