<svg width="20" height="20" viewBox="0 0 20 20" xmlns="http://www.w3.org/2000/svg">
  <path
     d="M 8.5042444,18 H 5.000991 c -0.276,0 -0.5,-0.223752 -0.5,-0.5 v -15 c 0,-0.276 0.224,-0.5 0.5,-0.5 h 3.5032534 c 0.2762488,0 0.5,0.224 0.5,0.5 v 15 c 0,0.276248 -0.2237512,0.5 -0.5,0.5 z m -0.5,-15 H 5.500991 v 14 h 2.5032534 z m 6.9947646,15 h -3.485254 c -0.276248,0 -0.5,-0.223752 -0.5,-0.5 v -15 c 0,-0.276 0.223752,-0.5 0.5,-0.5 h 3.485254 c 0.276248,0 0.5,0.224 0.5,0.5 v 15 c 0,0.276248 -0.223502,0.5 -0.5,0.5 z m -0.5,-15 h -2.485254 v 14 h 2.485254 z" />
</svg>
