<svg width="20" height="20" viewBox="0 0 20 20" xmlns="http://www.w3.org/2000/svg">
  <path
     d="m 6.1019162,18.5 v 0 H 3.4864865 v 0 q -0.2534248,0 -0.4440231,-0.190892 v 0 0 q -0.1905981,-0.1916 -0.1905981,-0.472617 v 0 -11.7678652 0 q 0,-0.2547588 0.1905981,-0.44636 v 0 0 Q 3.2330617,5.4306646 3.4864865,5.4306646 v 0 h 2.6154297 v 0 q 0.2541308,0 0.444729,0.1916012 v 0 0 q 0.1905982,0.1916012 0.1905982,0.44636 v 0 11.7678652 0 q 0,0.281017 -0.1905982,0.472617 v 0 0 Q 6.356047,18.5 6.1019162,18.5 Z M 4.1472267,17.172983 v 0 H 5.4418821 V 6.7328435 H 4.1472267 Z M 11.308069,18.5 v 0 H 8.691933 v 0 q -0.2534247,0 -0.4440229,-0.190892 v 0 0 q -0.1905982,-0.1916 -0.1905982,-0.472617 v 0 -15.6729829 0 q 0,-0.2810152 0.1905982,-0.4726164 v 0 0 Q 8.4385083,1.5 8.691933,1.5 v 0 h 2.616136 v 0 q 0.253425,0 0.444023,0.1908917 v 0 0 q 0.190599,0.1916012 0.190599,0.4726164 v 0 15.6729829 0 q 0,0.281017 -0.190599,0.472617 v 0 0 Q 11.561494,18.5 11.308069,18.5 Z M 9.3526734,17.172983 v 0 H 10.647329 V 2.8014694 H 9.3526734 Z M 16.488101,18.5 v 0 h -2.590015 v 0 q -0.279544,0 -0.470141,-0.190892 v 0 0 q -0.1906,-0.1916 -0.1906,-0.472617 v 0 -6.534312 0 q 0,-0.281015 0.1906,-0.472617 v 0 0 q 0.190597,-0.191601 0.470141,-0.191601 v 0 h 2.590015 v 0 q 0.27884,0 0.469437,0.191601 v 0 0 q 0.190597,0.191602 0.190597,0.472617 v 0 6.534312 0 q 0,0.281017 -0.190597,0.472617 v 0 0 Q 16.766941,18.5 16.488101,18.5 Z M 14.55812,17.172983 v 0 h 1.294655 v -5.207297 h -1.294656 z" />
</svg>
