<svg width="20" height="20" viewBox="0 0 20 20" xmlns="http://www.w3.org/2000/svg">
  <path d="M 15.824575,19.500002 H 4.3325462 c 0.3871826,-3.086238 2.3567637,-5.953634 5.7460148,-8.495572 3.389251,2.541938 5.358831,5.409334 5.746014,8.495572 z" />
  <path d="m 17.070293,0.49999758 h 0.05611 C 18.433845,0.49999758 19.5,1.5661526 19.5,2.8735953 V 17.126405 c 0,1.307442 -1.066155,2.373597 -2.373598,2.373597 h -0.05611 v -0.03928 c -0.117836,-3.81571 -2.345541,-6.57649 -5.841407,-9.460721 v 0 0 0 0 c 3.495866,-2.8842289 5.723569,-5.6450093 5.841407,-9.460722 z" />
  <path d="M 4.3325462,0.49999758 H 15.824575 C 15.437392,3.5862358 13.467812,6.4536316 10.078561,8.9955697 6.6893099,6.4536316 4.7197288,3.5862358 4.3325462,0.49999758 Z" />
  <path d="m 2.9297106,0.49999758 v 0.0392789 C 3.0475487,4.3549897 5.2752516,7.1157701 8.7711179,9.9999999 v 0 0 0 0 C 5.2752516,12.88423 3.0475489,15.64501 2.9297106,19.460722 v 0.03928 h -0.056113 c -1.3074427,0 -2.37359772,-1.066156 -2.37359772,-2.373598 V 2.8735953 c 0,-1.3074427 1.06615502,-2.37359772 2.37359772,-2.37359772 z" />
</svg>